:SAMPLES-PER-SECOND 30
:FULLY-SPECIFIED
:DEGREES
155
root  9.10531 38.478 -0.859389 -30.7108 -84.0894 51.6521
RightUpLeg  -53.001 -25.4016 15.9546
RightLeg  25.4387 -1.43207 -1.0862
RightFoot  0.893184 1.04546 -9.6584
RightToes  2.91037e-010 0 -3.6325e-017
Spine  70.3108 -4.18385 4.45157
Spine1  15.5153 -1.7062 -0.60277
HEad  -19.7333 2.44661 -9.3576
LeftShoulder1  6.22846 -23.5263 -16.1841
LeftArm  -68.4253 -62.414 31.6223
LeftForeArm  -14.3373 5.93276 -2.22834
LeftHand  -0.244104 0.0205437 5.32207
RightShoulder  0.340267 15.372 -7.5467
RightArm  -76.3909 63.1566 -14.4228
RightForeArm  -23.1855 -2.14826 -2.01949
RightHand  0.286425 -0.694673 7.23223
LeftUpLeg  -50.3552 9.73757 -6.45302
LeftLeg  45.4755 5.10952 5.9072
LeftFoot  -0.00845803 0.0932753 -0.948426
LeftToes  -1.10052e-010 1.3781e-010 -2.1811e-011
156
root  10.1563 38.4579 -0.570807 -31.6605 -84.5315 53.1011
RightUpLeg  -53.6317 -25.7265 16.8867
RightLeg  21.6136 -0.537568 0.328357
RightFoot  4.04566 1.42125 -10.27
RightToes  2.91037e-010 0 -3.6325e-017
Spine  69.945 -4.33105 4.69352
Spine1  15.7024 -1.90355 -0.41848
HEad  -18.7151 2.83093 -10.548
LeftShoulder1  6.20641 -23.302 -16.3079
LeftArm  -69.1115 -62.7593 31.6344
LeftForeArm  -14.9006 5.89061 -2.05802
LeftHand  -0.244104 0.0205437 5.32207
RightShoulder  0.377173 15.5458 -7.34354
RightArm  -77.9089 63.0715 -16.0348
RightForeArm  -22.8073 -2.05086 -2.17759
RightHand  0.29756 -0.494838 7.16923
LeftUpLeg  -48.3572 9.31885 -6.30683
LeftLeg  48.2004 3.44942 4.56479
LeftFoot  -0.572122 0.0953052 -0.982941
LeftToes  -1.10052e-010 1.3781e-010 -2.1811e-011
157
root  11.2399 38.4107 -0.245567 -33.7747 -85.0054 55.5402
RightUpLeg  -51.2784 -21.675 11.1083
RightLeg  17.2668 -6.49556 2.94983
RightFoot  7.51333 1.79527 -10.4591
RightToes  2.91037e-010 0 -3.6325e-017
Spine  69.6553 -4.38899 4.65036
Spine1  15.8366 -1.9614 -0.509957
HEad  -17.5875 3.27265 -11.566
LeftShoulder1  6.17819 -23.0094 -16.4748
LeftArm  -69.3789 -63.2083 31.2977
LeftForeArm  -15.0794 5.87551 -1.99433
LeftHand  -0.244104 0.0205437 5.32207
RightShoulder  0.413433 15.638 -7.13738
RightArm  -78.715 63.054 -16.5099
RightForeArm  -22.4464 -2.00041 -2.36792
RightHand  0.285616 -0.811741 7.41666
LeftUpLeg  -45.3167 9.53738 -6.79429
LeftLeg  47.1717 2.18599 2.95958
LeftFoot  -3.24936 0.228294 -3.14279
LeftToes  -1.10052e-010 1.3781e-010 -2.1811e-011
158
root  12.3576 38.3781 0.107589 -38.308 -84.9791 60.1981
RightUpLeg  -47.9812 -15.8953 2.60964
RightLeg  11.1444 -15.4412 6.01472
RightFoot  11.661 1.90951 -8.99321
RightToes  2.91037e-010 0 -3.6325e-017
Spine  69.6739 -4.48416 3.97226
Spine1  16.1387 -1.98316 -0.909348
HEad  -16.3434 3.93345 -12.7357
LeftShoulder1  6.18284 -22.6932 -16.8041
LeftArm  -68.9691 -63.6618 30.495
LeftForeArm  -14.9495 5.89213 -2.07342
LeftHand  -0.244104 0.0205437 5.32207
RightShoulder  0.364588 15.6608 -7.4322
RightArm  -78.0264 62.9525 -15.5263
RightForeArm  -22.5349 -2.16048 -2.43996
RightHand  0.266935 -1.2154 7.68229
LeftUpLeg  -41.9068 10.6349 -8.57743
LeftLeg  42.2624 1.94123 2.28004
LeftFoot  -8.53965 0.179169 -4.55108
LeftToes  -1.10052e-010 1.3781e-010 -2.1811e-011
159
root  13.5435 38.2688 0.473687 -42.3742 -84.4629 64.2648
RightUpLeg  -46.1026 -13.1273 -2.82531
RightLeg  5.01516 -20.3256 8.63561
RightFoot  15.5251 1.02506 -3.88831
RightToes  2.91037e-010 0 -3.6325e-017
Spine  69.8199 -4.68945 3.06668
Spine1  16.4551 -2.17989 -1.30196
HEad  -15.1654 4.97824 -13.8707
LeftShoulder1  6.17238 -22.3599 -17.0947
LeftArm  -68.6937 -64.152 29.9501
LeftForeArm  -15.0747 5.9127 -2.21002
LeftHand  -0.244104 0.0205437 5.32207
RightShoulder  0.242485 15.5117 -8.15093
RightArm  -76.5934 62.7566 -13.7964
RightForeArm  -22.9353 -2.30873 -2.43023
RightHand  0.262138 -1.30372 7.72958
LeftUpLeg  -40.0595 12.1575 -11.4766
LeftLeg  36.5132 1.94808 1.92317
LeftFoot  -13.0503 0.0572113 -1.54131
LeftToes  -1.10052e-010 1.3781e-010 -2.1811e-011
160
root  14.788 38.0822 0.803999 -42.9397 -83.8644 64.6013
RightUpLeg  -45.2558 -13.9319 -5.13148
RightLeg  1.29199 -18.704 10.1708
RightFoot  17.409 -1.5224 6.46011
RightToes  2.91037e-010 0 -3.6325e-017
Spine  69.6862 -4.93878 2.38563
Spine1  16.3975 -2.49273 -1.54096
HEad  -14.5354 6.27055 -14.4003
LeftShoulder1  6.04663 -21.9674 -16.9642
LeftArm  -69.7174 -64.7803 30.7881
LeftForeArm  -15.6249 5.92002 -2.32752
LeftHand  -0.244104 0.0205437 5.32207
RightShoulder  0.109303 15.1295 -8.93881
RightArm  -75.8692 62.4129 -12.6276
RightForeArm  -23.056 -2.2479 -2.53449
RightHand  0.277737 -1.16851 7.88844
LeftUpLeg  -40.7734 13.2552 -14.2409
LeftLeg  33.8893 1.57724 1.50508
LeftFoot  -13.7225 0.138761 3.21927
LeftToes  -1.10052e-010 1.3781e-010 -2.1811e-011
161
root  16.0124 37.8728 1.04855 -41.9337 -83.3661 63.1061
RightUpLeg  -46.1231 -17.922 -4.18525
RightLeg  2.06329 -10.3099 10.0747
RightFoot  16.5833 -4.49199 18.4646
RightToes  2.91037e-010 0 -3.6325e-017
Spine  69.5999 -5.06032 1.62459
Spine1  16.5593 -2.51898 -2.00383
HEad  -14.4272 7.45804 -14.2459
LeftShoulder1  5.83564 -21.561 -16.4769
LeftArm  -72.1513 -65.4275 33.0069
LeftForeArm  -16.0972 5.93627 -2.30361
LeftHand  -0.244104 0.0205437 5.32207
RightShoulder  0.0117782 14.6616 -9.53531
RightArm  -76.4263 61.8912 -12.6258
RightForeArm  -23.299 -2.0075 -2.82312
RightHand  0.277918 -1.36175 8.31818
LeftUpLeg  -43.1007 13.8784 -16.1808
LeftLeg  34.8827 0.789073 0.961883
LeftFoot  -11.7205 0.0927377 5.65341
LeftToes  -1.10052e-010 1.3781e-010 -2.1811e-011
162
root  17.2377 37.7366 1.24757 -41.2942 -83.7936 61.6903
RightUpLeg  -51.963 -26.3359 5.82946
RightLeg  9.19546 4.64165 7.7096
RightFoot  14.4462 -5.3741 23.5838
RightToes  2.91037e-010 0 -3.6325e-017
Spine  69.6973 -4.8967 1.24386
Spine1  17.3541 -2.06012 -2.70197
HEad  -14.0329 8.37846 -14.0696
LeftShoulder1  5.71927 -21.3488 -16.1883
LeftArm  -74.4621 -65.6921 35.0337
LeftForeArm  -16.0235 5.6392 -2.1172
LeftHand  -0.244104 0.0205437 5.32207
RightShoulder  -0.0300706 14.2843 -9.80305
RightArm  -77.6734 61.5096 -13.1669
RightForeArm  -24.6759 -1.83729 -3.18592
RightHand  0.219434 -2.22417 8.62824
LeftUpLeg  -45.2704 15.1978 -17.1259
LeftLeg  36.1164 -0.241579 0.19842
LeftFoot  -9.63643 -0.031614 6.0768
LeftToes  -1.10052e-010 1.3781e-010 -2.1811e-011
